<?xml version="1.0" encoding="UTF-8" standalone="no"?>
<!-- Created with Inkscape (http://www.inkscape.org/) -->
<svg
   xmlns:dc="http://purl.org/dc/elements/1.1/"
   xmlns:cc="http://creativecommons.org/ns#"
   xmlns:rdf="http://www.w3.org/1999/02/22-rdf-syntax-ns#"
   xmlns:svg="http://www.w3.org/2000/svg"
   xmlns="http://www.w3.org/2000/svg"
   xmlns:sodipodi="http://sodipodi.sourceforge.net/DTD/sodipodi-0.dtd"
   xmlns:inkscape="http://www.inkscape.org/namespaces/inkscape"
   width="1603.1562"
   height="1603.1562"
   id="svg2398"
   sodipodi:version="0.32"
   inkscape:version="0.46+pre4"
   version="1.0"
   sodipodi:docname="islamic art4.svg"
   inkscape:output_extension="org.inkscape.output.svg.inkscape">
  <defs
     id="defs2400">
    <inkscape:perspective
       sodipodi:type="inkscape:persp3d"
       inkscape:vp_x="0 : 526.18109 : 1"
       inkscape:vp_y="0 : 1000 : 0"
       inkscape:vp_z="744.09448 : 526.18109 : 1"
       inkscape:persp3d-origin="372.04724 : 350.78739 : 1"
       id="perspective2406" />
  </defs>
  <sodipodi:namedview
     id="base"
     pagecolor="#ffffff"
     bordercolor="#666666"
     borderopacity="1.0"
     gridtolerance="10000"
     guidetolerance="10"
     objecttolerance="10"
     inkscape:pageopacity="0.0"
     inkscape:pageshadow="2"
     inkscape:zoom="0.35"
     inkscape:cx="690.98767"
     inkscape:cy="634.28571"
     inkscape:document-units="px"
     inkscape:current-layer="layer1"
     showgrid="false"
     inkscape:window-width="1280"
     inkscape:window-height="975"
     inkscape:window-x="-4"
     inkscape:window-y="-4" />
  <metadata
     id="metadata2403">
    <rdf:RDF>
      <cc:Work
         rdf:about="">
        <dc:format>image/svg+xml</dc:format>
        <dc:type
           rdf:resource="http://purl.org/dc/dcmitype/StillImage" />
        <dc:title>Islamic art</dc:title>
        <dc:subject>
          <rdf:Bag>
            <rdf:li>Islamic art outline geometric figure</rdf:li>
          </rdf:Bag>
        </dc:subject>
        <dc:creator>
          <cc:Agent>
            <dc:title>Mohamed Ibrahim</dc:title>
          </cc:Agent>
        </dc:creator>
        <cc:license
           rdf:resource="http://creativecommons.org/licenses/publicdomain/" />
        <dc:rights>
          <cc:Agent>
            <dc:title>Public domain</dc:title>
          </cc:Agent>
        </dc:rights>
        <dc:publisher>
          <cc:Agent>
            <dc:title>clker.com</dc:title>
          </cc:Agent>
        </dc:publisher>
        <dc:description></dc:description>
      </cc:Work>
      <cc:License
         rdf:about="http://creativecommons.org/licenses/publicdomain/">
        <cc:permits
           rdf:resource="http://creativecommons.org/ns#Reproduction" />
        <cc:permits
           rdf:resource="http://creativecommons.org/ns#Distribution" />
        <cc:permits
           rdf:resource="http://creativecommons.org/ns#DerivativeWorks" />
      </cc:License>
    </rdf:RDF>
  </metadata>
  <g
     inkscape:label="Layer 1"
     inkscape:groupmode="layer"
     id="layer1"
     transform="translate(486.18306,244.47065)">
    <path
       style="opacity:1;fill:#ffffff;fill-opacity:1;fill-rule:evenodd;stroke:#000000;stroke-width:5;stroke-linecap:round;stroke-linejoin:round;stroke-miterlimit:4;stroke-dasharray:none;stroke-dashoffset:0;stroke-opacity:1"
       d="M 272.84824,-241.97065 L 230.28574,-168.25185 L 135.69194,-113.62685 L 26.441936,-113.62685 L -47.276764,-156.18945 L -71.839264,-113.62685 L -120.99546,-113.62685 L -120.99546,-28.501851 L -175.62046,66.091849 L -270.21426,120.71685 L -355.33926,120.71685 L -355.33926,169.87315 L -397.90176,194.43555 L -355.33926,268.15435 L -355.33926,377.37315 L -409.99546,471.99815 L -483.68306,514.56055 L -459.12046,557.12315 L -483.68306,599.65437 L -409.99546,642.18557 L -355.33926,736.84187 L -355.33926,846.06057 L -397.90176,919.77937 L -355.33926,944.34187 L -355.33926,993.49817 L -270.21426,993.49817 L -175.62046,1048.1232 L -120.99546,1142.7169 L -120.99546,1227.8419 L -71.839264,1227.8419 L -47.276764,1270.4044 L 26.441936,1227.8419 L 135.66074,1227.8419 L 230.28574,1282.4669 L 272.84824,1356.1856 L 315.41074,1331.6232 L 357.97324,1356.1856 L 400.53574,1282.4669 L 495.12954,1227.8419 L 604.34824,1227.8419 L 678.06694,1270.4044 L 702.62954,1227.8419 L 751.78574,1227.8419 L 751.78574,1142.7169 L 806.41074,1048.1232 L 901.00454,993.49817 L 986.12954,993.49817 L 986.12954,944.34187 L 1028.6919,919.77937 L 986.12954,846.06057 L 986.12954,736.84187 L 1040.7857,642.21687 L 1114.4732,599.65437 L 1089.9107,557.09185 L 1114.4732,514.56055 L 1040.7857,472.02935 L 986.12954,377.37315 L 986.12954,268.15435 L 1028.6919,194.43555 L 986.12954,169.87315 L 986.12954,120.71685 L 901.00454,120.71685 L 806.41074,66.091849 L 751.78574,-28.501851 L 751.78574,-113.62685 L 702.62954,-113.62685 L 678.06694,-156.18945 L 604.34824,-113.62685 L 495.12954,-113.62685 L 400.53574,-168.25185 L 357.97324,-241.97065 L 315.41074,-217.40815 L 272.84824,-241.97065 z M 315.41074,-166.06445 L 360.94194,-139.78315 L 376.03574,-113.62685 L 254.75454,-113.62685 L 269.84824,-139.78315 L 315.41074,-166.06445 z M -46.214264,-69.189451 L 6.4107357,-69.189451 L 32.566936,-54.095651 L -72.495464,6.5918489 L -72.495464,-23.626851 L -46.214264,-69.189451 z M 147.59824,-69.189451 L 173.09824,-69.189451 L 155.66074,-39.033151 L 125.50454,-56.439451 L 147.59824,-69.189451 z M 229.09824,-69.189451 L 401.69194,-69.189451 L 433.12954,-14.751851 L 315.37954,53.216849 L 197.66074,-14.751851 L 229.09824,-69.189451 z M 457.75454,-69.189451 L 483.22324,-69.189451 L 505.31694,-56.439451 L 475.16074,-39.033151 L 457.75454,-69.189451 z M 624.37954,-69.189451 L 677.00454,-69.189451 L 703.28574,-23.658151 L 703.28574,6.5605489 L 598.25454,-54.095651 L 624.37954,-69.189451 z M 76.973236,-28.439451 L 131.41074,2.9981489 L 63.441936,120.71685 L -72.495464,120.71685 L -72.495464,57.873149 L 76.973236,-28.439451 z M 553.81694,-28.439451 L 703.28574,57.873149 L 703.28574,120.71685 L 567.37954,120.71685 L 499.41074,2.9668489 L 553.81694,-28.439451 z M 173.41074,27.248149 L 266.87954,81.216849 L 198.47324,120.71685 L 119.44194,120.71685 L 173.41074,27.248149 z M 457.37954,27.248149 L 511.34824,120.71685 L 432.31694,120.71685 L 363.91074,81.216849 L 457.37954,27.248149 z M -120.99546,85.873149 L -120.99546,120.71685 L -155.83926,120.71685 L -143.08926,98.623149 L -120.99546,85.873149 z M 751.78574,85.873149 L 773.87954,98.623149 L 786.62954,120.71685 L 751.78574,120.71685 L 751.78574,85.873149 z M 315.37954,109.21685 L 335.31694,120.71685 L 295.47324,120.71685 L 315.37954,109.21685 z M -265.37046,169.21685 L -235.15176,169.21685 L -295.80806,274.24815 L -310.90176,248.12315 L -310.90176,195.49815 L -265.37046,169.21685 z M -183.83926,169.21685 L -120.99546,169.21685 L -120.99546,305.15435 L -238.71426,373.12315 L -270.15176,318.68555 L -183.83926,169.21685 z M -72.495464,169.21685 L 35.441936,169.21685 L -4.0580643,237.65435 L -72.495464,277.15435 L -72.495464,169.21685 z M 91.441936,169.21685 L 114.47324,169.21685 L 79.941936,189.15435 L 91.441936,169.21685 z M 211.47324,169.21685 L 419.31694,169.21685 L 599.34824,273.15435 L 703.28574,453.18555 L 703.28574,661.02937 L 599.34824,841.06057 L 419.31694,944.99817 L 211.47324,944.99817 L 31.441936,841.06057 L -72.495464,661.02937 L -72.495464,453.18555 L 31.441936,273.15435 L 211.47324,169.21685 z M 516.31694,169.21685 L 539.34824,169.21685 L 550.84824,189.15435 L 516.31694,169.21685 z M 595.37954,169.21685 L 703.28574,169.21685 L 703.28574,277.15435 L 634.87954,237.65435 L 595.37954,169.21685 z M 751.78574,169.21685 L 814.62954,169.21685 L 900.94194,318.68555 L 869.50454,373.12315 L 751.78574,305.15435 L 751.78574,169.21685 z M 865.94194,169.21685 L 896.16074,169.21685 L 941.69194,195.49815 L 941.69194,248.12315 L 926.59824,274.24815 L 865.94194,169.21685 z M -52.558064,321.65435 L -72.495464,356.18555 L -72.495464,333.15435 L -52.558064,321.65435 z M 683.37954,321.68555 L 703.28574,333.18555 L 703.28574,356.15435 L 683.37954,321.68555 z M -120.99546,361.15435 L -120.99546,440.18555 L -160.49546,508.59185 L -214.46426,415.12315 L -120.99546,361.15435 z M 751.78574,361.18555 L 845.25454,415.12315 L 791.28574,508.59185 L 751.78574,440.18555 L 751.78574,361.18555 z M -298.15176,367.21685 L -280.74546,397.37315 L -310.90176,414.81055 L -310.90176,389.31055 L -298.15176,367.21685 z M 928.94194,367.21685 L 941.69194,389.27935 L 941.69194,414.81055 L 911.50454,397.40435 L 928.94194,367.21685 z M -256.46426,439.40435 L -188.49546,557.09185 L -256.46426,674.84187 L -310.90176,643.40437 L -310.90176,470.81055 L -256.46426,439.40435 z M 887.25454,439.40435 L 941.69194,470.81055 L 941.69194,643.40437 L 887.25454,674.81057 L 819.31694,557.12315 L 887.25454,439.40435 z M -355.33926,496.46685 L -355.33926,617.74817 L -381.49546,602.65437 L -407.77676,557.12315 L -381.49546,511.56055 L -355.33926,496.46685 z M 986.12954,496.46685 L 1012.2857,511.56055 L 1038.5669,557.09185 L 1012.2857,602.65437 L 986.12954,617.74817 L 986.12954,496.46685 z M -120.99546,537.18555 L -120.99546,576.99817 L -132.49546,557.09185 L -120.99546,537.18555 z M 751.78574,537.21685 L 763.28574,557.12315 L 751.78574,577.02937 L 751.78574,537.21685 z M -160.49546,605.62317 L -120.99546,674.02937 L -120.99546,753.06057 L -214.46426,699.09187 L -160.49546,605.62317 z M 791.28574,605.62317 L 845.25454,699.09187 L 751.78574,753.06057 L 751.78574,674.06057 L 791.28574,605.62317 z M -310.90176,699.40437 L -280.71426,716.84187 L -298.15176,747.02937 L -310.90176,724.93557 L -310.90176,699.40437 z M 941.69194,699.40437 L 941.69194,724.90437 L 928.94194,746.99817 L 911.53574,716.84187 L 941.69194,699.40437 z M -238.71426,741.09187 L -120.99546,809.06057 L -120.99546,944.99817 L -183.83926,944.99817 L -270.15176,795.52937 L -238.71426,741.09187 z M 869.50454,741.09187 L 900.94194,795.52937 L 814.62954,944.99817 L 751.78574,944.99817 L 751.78574,809.06057 L 869.50454,741.09187 z M -72.495464,758.02937 L -52.558064,792.56057 L -72.495464,781.06057 L -72.495464,758.02937 z M 703.28574,758.06057 L 703.28574,781.06057 L 683.37954,792.56057 L 703.28574,758.06057 z M 703.28574,837.02937 L 703.28574,944.99817 L 595.37954,944.99817 L 634.87954,876.52937 L 703.28574,837.02937 z M -72.495464,837.06057 L -4.0580643,876.56057 L 35.441936,944.99817 L -72.495464,944.99817 L -72.495464,837.06057 z M -295.80806,839.96687 L -235.15176,944.99817 L -265.37046,944.99817 L -310.90176,918.71687 L -310.90176,866.09187 L -295.80806,839.96687 z M 926.59824,839.96687 L 941.69194,866.09187 L 941.69194,918.71687 L 896.16074,944.99817 L 865.94194,944.99817 L 926.59824,839.96687 z M 79.941936,925.06057 L 114.47324,944.99817 L 91.441936,944.99817 L 79.941936,925.06057 z M 550.84824,925.06057 L 539.34824,944.99817 L 516.31694,944.99817 L 550.84824,925.06057 z M -155.83926,993.49817 L -120.99546,993.49817 L -120.99546,1028.3419 L -143.08926,1015.5919 L -155.83926,993.49817 z M -72.495464,993.49817 L 63.441936,993.49817 L 131.41074,1111.2169 L 76.973236,1142.6544 L -72.495464,1056.3419 L -72.495464,993.49817 z M 119.44194,993.49817 L 198.47324,993.49817 L 266.87954,1032.9982 L 173.41074,1086.9669 L 119.44194,993.49817 z M 295.47324,993.49817 L 335.31694,993.49817 L 315.41074,1004.9982 L 295.47324,993.49817 z M 432.31694,993.49817 L 511.34824,993.49817 L 457.37954,1086.9669 L 363.91074,1032.9982 L 432.31694,993.49817 z M 567.37954,993.49817 L 703.28574,993.49817 L 703.28574,1056.3419 L 553.81694,1142.6544 L 499.37954,1111.2169 L 567.37954,993.49817 z M 751.78574,993.49817 L 786.62954,993.49817 L 773.87954,1015.5919 L 751.78574,1028.3419 L 751.78574,993.49817 z M 315.41074,1060.9982 L 433.12954,1128.9669 L 401.69194,1183.4044 L 229.09824,1183.4044 L 197.66074,1128.9669 L 315.41074,1060.9982 z M -72.495464,1107.6544 L 32.535736,1168.3106 L 6.4107357,1183.4044 L -46.214264,1183.4044 L -72.495464,1137.8732 L -72.495464,1107.6544 z M 703.28574,1107.6544 L 703.28574,1137.8732 L 677.00454,1183.4044 L 624.37954,1183.4044 L 598.25454,1168.3106 L 703.28574,1107.6544 z M 155.66074,1153.2169 L 173.09824,1183.4044 L 147.56694,1183.4044 L 125.47324,1170.6544 L 155.66074,1153.2169 z M 475.12954,1153.2482 L 505.28574,1170.6544 L 483.19194,1183.4044 L 457.72324,1183.4044 L 475.12954,1153.2482 z M 254.75454,1227.8419 L 376.03574,1227.8419 L 360.94194,1253.9982 L 315.37954,1280.2794 L 269.84824,1253.9982 L 254.75454,1227.8419 z"
       id="rect3384" />
  </g>
</svg>
